HIERARCHY
ROOT Hips
{
	OFFSET 0.000000 35.082581 0.000000
	CHANNELS 6 Xposition Yposition Zposition Xrotation Yrotation Zrotation 
	JOINT Spine
	{
		OFFSET 0.000000 6.876099 0.125700
		CHANNELS 3 Xrotation Yrotation Zrotation
		JOINT Spine1
		{
			OFFSET 0.000000 5.730043 0.104720
			CHANNELS 3 Xrotation Yrotation Zrotation
			JOINT Spine1_split
			{
				OFFSET 0.000000 5.730043 0.104720
				CHANNELS 3 Xrotation Yrotation Zrotation
				JOINT Spine2
				{
					OFFSET 0.000000 5.730043 0.104720
					CHANNELS 3 Xrotation Yrotation Zrotation
					JOINT Neck
					{
						OFFSET 0.000000 10.314075 0.188496
						CHANNELS 3 Xrotation Yrotation Zrotation
						JOINT Head
						{
							OFFSET 0.000000 7.643700 -2.377400
							CHANNELS 3 Xrotation Yrotation Zrotation
							JOINT HeadTop_End
							{
								OFFSET 0.000000 43.788605 -13.619600
								CHANNELS 3 Xrotation Yrotation Zrotation
								End Site
								{
									OFFSET 0.000000 0.000000 0.000000
								}
							}
						}
					}
					JOINT LeftShoulder
					{
						OFFSET 2.196100 4.412489 0.087492
						CHANNELS 3 Xrotation Yrotation Zrotation
						JOINT LeftShoulder_split
						{
							OFFSET 2.196100 4.412489 0.087492
							CHANNELS 3 Xrotation Yrotation Zrotation
							JOINT LeftArm
							{
								OFFSET 8.771219 -2.981674 -0.026999
								CHANNELS 3 Xrotation Yrotation Zrotation
								JOINT LeftForeArm
								{
									OFFSET 8.512804 0.000000 -0.000000
									CHANNELS 3 Xrotation Yrotation Zrotation
									JOINT LeftHand
									{
										OFFSET 18.484802 0.000000 -0.000000
										CHANNELS 3 Xrotation Yrotation Zrotation
										JOINT LeftHandThumb1
										{
											OFFSET 2.499420 -1.158070 2.653252
											CHANNELS 3 Xrotation Yrotation Zrotation
											JOINT LeftHandThumb2
											{
												OFFSET 2.370079 -1.368366 1.368366
												CHANNELS 3 Xrotation Yrotation Zrotation
												JOINT LeftHandThumb3
												{
													OFFSET 2.676727 -1.545410 1.545409
													CHANNELS 3 Xrotation Yrotation Zrotation
													JOINT LeftHandThumb4
													{
														OFFSET 1.692226 -0.977005 0.977007
														CHANNELS 3 Xrotation Yrotation Zrotation
														End Site
														{
															OFFSET 0.000000 0.000000 0.000000
														}
													}
												}
											}
										}
										JOINT LeftHandIndex1
										{
											OFFSET 7.924831 -0.457527 2.345128
											CHANNELS 3 Xrotation Yrotation Zrotation
											JOINT LeftHandIndex2
											{
												OFFSET 3.643303 0.000000 0.000000
												CHANNELS 3 Xrotation Yrotation Zrotation
												JOINT LeftHandIndex3
												{
													OFFSET 3.810799 0.000000 0.000000
													CHANNELS 3 Xrotation Yrotation Zrotation
													JOINT LeftHandIndex4
													{
														OFFSET 2.403702 0.000000 0.000000
														CHANNELS 3 Xrotation Yrotation Zrotation
														End Site
														{
															OFFSET 0.000000 0.000000 0.000000
														}
													}
												}
											}
										}
										JOINT LeftHandMiddle1
										{
											OFFSET 8.563995 0.000000 -0.000000
											CHANNELS 3 Xrotation Yrotation Zrotation
											JOINT LeftHandMiddle2
											{
												OFFSET 3.861618 0.000000 0.000000
												CHANNELS 3 Xrotation Yrotation Zrotation
												JOINT LeftHandMiddle3
												{
													OFFSET 3.701603 0.000000 0.000000
													CHANNELS 3 Xrotation Yrotation Zrotation
													JOINT LeftHandMiddle4
													{
														OFFSET 2.322544 0.000000 0.000000
														CHANNELS 3 Xrotation Yrotation Zrotation
														End Site
														{
															OFFSET 0.000000 0.000000 0.000000
														}
													}
												}
											}
										}
										JOINT LeftHandRing1
										{
											OFFSET 8.426460 -0.424637 -3.286992
											CHANNELS 3 Xrotation Yrotation Zrotation
											JOINT LeftHandRing2
											{
												OFFSET 3.126408 0.000000 0.000000
												CHANNELS 3 Xrotation Yrotation Zrotation
												JOINT LeftHandRing3
												{
													OFFSET 3.085026 0.000000 0.000000
													CHANNELS 3 Xrotation Yrotation Zrotation
													JOINT LeftHandRing4
													{
														OFFSET 1.644005 0.000000 0.000000
														CHANNELS 3 Xrotation Yrotation Zrotation
														End Site
														{
															OFFSET 0.000000 0.000000 0.000000
														}
													}
												}
											}
										}
									}
								}
							}
						}
					}
					JOINT RightShoulder
					{
						OFFSET -2.196100 4.412496 0.070690
						CHANNELS 3 Xrotation Yrotation Zrotation
						JOINT RightShoulder_split
						{
							OFFSET -2.196100 4.412496 0.070690
							CHANNELS 3 Xrotation Yrotation Zrotation
							JOINT RightArm
							{
								OFFSET -8.771282 -2.981682 -0.094208
								CHANNELS 3 Xrotation Yrotation Zrotation
								JOINT RightForeArm
								{
									OFFSET -8.494598 0.000000 0.000000
									CHANNELS 3 Xrotation Yrotation Zrotation
									JOINT RightHand
									{
										OFFSET -18.483803 0.000000 0.000001
										CHANNELS 3 Xrotation Yrotation Zrotation
										JOINT RightHandThumb1
										{
											OFFSET -2.527351 -1.008072 2.575253
											CHANNELS 3 Xrotation Yrotation Zrotation
											JOINT RightHandThumb2
											{
												OFFSET -2.321518 -1.340328 1.340329
												CHANNELS 3 Xrotation Yrotation Zrotation
												JOINT RightHandThumb3
												{
													OFFSET -2.657753 -1.534454 1.534455
													CHANNELS 3 Xrotation Yrotation Zrotation
													JOINT RightHandThumb4
													{
														OFFSET -1.807510 -1.043568 1.043567
														CHANNELS 3 Xrotation Yrotation Zrotation
														End Site
														{
															OFFSET 0.000000 0.000000 0.000000
														}
													}
												}
											}
										}
										JOINT RightHandIndex1
										{
											OFFSET -8.811420 0.015533 2.887987
											CHANNELS 3 Xrotation Yrotation Zrotation
											JOINT RightHandIndex2
											{
												OFFSET -3.537502 0.000000 0.000000
												CHANNELS 3 Xrotation Yrotation Zrotation
												JOINT RightHandIndex3
												{
													OFFSET -3.356201 0.000000 0.000000
													CHANNELS 3 Xrotation Yrotation Zrotation
													JOINT RightHandIndex4
													{
														OFFSET -1.933098 0.000000 0.000000
														CHANNELS 3 Xrotation Yrotation Zrotation
														End Site
														{
															OFFSET 0.000000 0.000000 0.000000
														}
													}
												}
											}
										}
										JOINT RightHandMiddle1
										{
											OFFSET -8.178135 0.000000 0.000000
											CHANNELS 3 Xrotation Yrotation Zrotation
											JOINT RightHandMiddle2
											{
												OFFSET -3.901302 0.000000 0.000000
												CHANNELS 3 Xrotation Yrotation Zrotation
												JOINT RightHandMiddle3
												{
													OFFSET -3.909599 0.000000 0.000000
													CHANNELS 3 Xrotation Yrotation Zrotation
													JOINT RightHandMiddle4
													{
														OFFSET -2.376003 0.000000 0.000000
														CHANNELS 3 Xrotation Yrotation Zrotation
														End Site
														{
															OFFSET 0.000000 0.000000 0.000000
														}
													}
												}
											}
										}
										JOINT RightHandRing1
										{
											OFFSET -7.559013 0.014137 -2.865403
											CHANNELS 3 Xrotation Yrotation Zrotation
											JOINT RightHandRing2
											{
												OFFSET -3.449306 0.000000 0.000000
												CHANNELS 3 Xrotation Yrotation Zrotation
												JOINT RightHandRing3
												{
													OFFSET -3.362106 0.000000 0.000000
													CHANNELS 3 Xrotation Yrotation Zrotation
													JOINT RightHandRing4
													{
														OFFSET -2.076401 0.000000 0.000000
														CHANNELS 3 Xrotation Yrotation Zrotation
														End Site
														{
															OFFSET 0.000000 0.000000 0.000000
														}
													}
												}
											}
										}
									}
								}
							}
						}
					}
				}
			}
		}
	}
	JOINT LeftUpLeg
	{
		OFFSET 10.205400 -3.823500 0.155100
		CHANNELS 3 Xrotation Yrotation Zrotation
		JOINT LeftLeg
		{
			OFFSET 0.708757 -12.982077 0.567790
			CHANNELS 3 Xrotation Yrotation Zrotation
			JOINT LeftFoot
			{
				OFFSET -0.708756 -10.717838 -2.184338
				CHANNELS 3 Xrotation Yrotation Zrotation
				JOINT LeftToeBase
				{
					OFFSET 0.108149 -7.191104 7.560241
					CHANNELS 3 Xrotation Yrotation Zrotation
					JOINT LeftToe_End
					{
						OFFSET 0.070230 0.081724 4.490308
						CHANNELS 3 Xrotation Yrotation Zrotation
						End Site
						{
							OFFSET 0.000000 0.000000 0.000000
						}
					}
				}
			}
		}
	}
	JOINT RightUpLeg
	{
		OFFSET -10.205400 -3.823500 0.005500
		CHANNELS 3 Xrotation Yrotation Zrotation
		JOINT RightLeg
		{
			OFFSET -0.708756 -12.982134 0.610632
			CHANNELS 3 Xrotation Yrotation Zrotation
			JOINT RightFoot
			{
				OFFSET 0.708754 -10.717769 -1.945823
				CHANNELS 3 Xrotation Yrotation Zrotation
				JOINT RightToeBase
				{
					OFFSET -0.108140 -7.191069 7.372968
					CHANNELS 3 Xrotation Yrotation Zrotation
					JOINT RightToe_End
					{
						OFFSET -0.070227 0.081735 4.479403
						CHANNELS 3 Xrotation Yrotation Zrotation
						End Site
						{
							OFFSET 0.000000 0.000000 0.000000
						}
					}
				}
			}
		}
	}
}
MOTION
Frames: 5
Frame Time: 0.016667
0.092705 34.291370 -0.300852 1.940792 1.916040 0.556799 6.157614 -1.336039 -0.670472 2.498166 -2.419469 1.232352 0.000000 0.000000 0.000000 2.471487 -2.375263 1.342052 -0.476780 2.129173 -0.237603 -3.192701 4.531152 -1.881903 0.000000 0.000000 -0.000000 0.352374 -9.169231 -14.380716 0.000000 0.000000 0.000000 9.011951 -24.442281 -57.554610 0.000004 -11.061374 0.000014 3.271988 3.566756 -10.594342 5.264566 3.579086 10.848985 6.474979 8.367004 6.368035 2.011385 -7.323843 21.364132 -0.000004 -0.000001 -0.000001 -2.233903 -4.155354 -17.702575 0.202680 1.529132 -15.099441 0.202692 1.529140 -15.099450 0.000003 0.000002 -0.000002 0.434915 4.486720 -26.650215 0.126192 1.210709 -11.901605 0.171707 1.409423 -13.892089 -0.000002 0.000002 -0.000001 1.633474 6.797666 -27.448956 0.330724 1.942281 -19.325008 0.401425 2.133130 -21.313470 -0.000002 0.000001 0.000000 0.552478 4.135224 15.717167 0.000000 0.000000 0.000000 3.061860 28.096183 49.279859 -0.000009 23.795814 0.000020 -1.370114 0.937406 5.904098 12.604598 -3.092104 -3.819390 4.958746 -19.016382 -8.084341 -16.136278 -1.568459 -12.126151 0.000003 0.000001 -0.000003 -2.604821 4.000972 20.793314 0.395170 -1.879137 23.750105 0.077973 -0.849548 10.487997 0.000000 -0.000001 0.000000 -1.114243 -0.327542 22.216061 0.858156 -2.695815 35.310104 0.296089 -1.635647 20.519992 0.000001 0.000003 -0.000000 -0.268997 -2.585349 24.354283 1.505969 -3.430893 47.387439 0.374057 -1.830425 23.097608 0.000000 -0.000002 0.000000 -30.199569 9.511978 4.239004 59.832157 -4.521159 -0.444149 -0.883280 0.055764 -1.295614 -17.169639 -0.672626 4.255844 0.000001 -0.000001 0.000000 -14.783931 -7.246103 0.838720 23.215430 2.775289 -3.297296 -11.279271 -0.029801 -0.303377 -4.971578 0.000035 0.000000 0.000001 -0.000000 0.000000 
0.093734 34.291103 -0.299890 1.940469 1.916433 0.556994 6.158077 -1.334486 -0.670477 2.498233 -2.417830 1.232011 0.000000 0.000000 0.000000 2.471640 -2.373642 1.341658 -0.476554 2.128853 -0.237604 -3.192824 4.526922 -1.879946 -0.000000 0.000000 -0.000000 0.352415 -9.170009 -14.382080 0.000000 0.000000 0.000000 9.010348 -24.438413 -57.554398 0.000017 -11.063234 -0.000012 3.257408 3.553999 -10.593113 5.263822 3.578374 10.848684 6.474947 8.367291 6.367681 2.010739 -7.323476 21.363490 -0.000003 -0.000001 -0.000003 -2.233609 -4.154923 -17.701610 0.202648 1.529040 -15.098386 0.202644 1.529029 -15.098418 -0.000000 0.000000 -0.000001 0.434868 4.486592 -26.648625 0.126189 1.210631 -11.900783 0.171703 1.409345 -13.891152 -0.000001 0.000000 0.000001 1.633273 6.797409 -27.447279 0.330690 1.942151 -19.323700 0.401374 2.132992 -21.312022 -0.000000 -0.000000 0.000001 0.552002 4.136477 15.717496 0.000000 0.000000 0.000000 3.065233 28.095302 49.277916 -0.000012 23.806303 -0.000005 -1.366999 0.936649 5.900776 12.604094 -3.090592 -3.818899 4.958340 -19.014786 -8.084007 -16.136549 -1.566836 -12.125789 0.000001 0.000001 0.000002 -2.604885 4.001882 20.791728 0.395121 -1.879010 23.748353 0.077956 -0.849410 10.486300 -0.000002 0.000002 0.000002 -1.114350 -0.326923 22.214449 0.858055 -2.695690 35.308414 0.296057 -1.635542 20.518310 0.000000 -0.000001 -0.000001 -0.268916 -2.585375 24.352596 1.505885 -3.430805 47.385776 0.374007 -1.830293 23.095928 0.000000 -0.000003 -0.000000 -30.200296 9.509571 4.242793 59.831385 -4.520237 -0.443978 -0.885688 0.057338 -1.298413 -17.168367 -0.671997 4.251923 0.000001 -0.000001 0.000000 -14.784001 -7.245623 0.835768 23.220562 2.774876 -3.297012 -11.284587 -0.028991 -0.301108 -4.971124 0.000036 0.000002 -0.000000 -0.000000 0.000000 
0.604984 34.157967 0.164915 1.781792 2.109827 0.654167 6.385706 -0.572517 -0.674107 2.528579 -1.613456 1.064342 0.000000 0.000000 0.000000 2.545425 -1.578220 1.147882 -0.365328 1.971525 -0.237604 -3.183215 2.474958 -1.431030 0.000000 0.000000 0.000000 0.372021 -9.555646 -15.041933 0.000000 0.000000 0.000000 8.216907 -22.540951 -57.446720 0.000009 -11.975305 -0.000001 3.731474 3.720154 -10.301907 4.891366 3.235517 10.703804 6.454771 8.503274 6.197289 1.690533 -7.139174 21.054519 -0.000001 -0.000003 -0.000002 -2.093291 -3.936375 -17.208609 0.189387 1.479052 -14.593606 0.189410 1.479067 -14.593657 0.000001 0.000000 -0.000001 0.414357 4.427928 -25.861104 0.117918 1.170732 -11.502992 0.160466 1.363111 -13.426789 0.000000 -0.000002 -0.000000 1.539053 6.674528 -26.628326 0.309131 1.879612 -18.677432 0.375266 2.064865 -20.599156 0.000002 0.000001 -0.000000 0.321556 4.755084 15.877543 0.000000 0.000000 0.000000 5.691780 26.887844 47.980747 0.000005 30.206600 -0.000014 0.161390 0.516860 4.276216 12.348111 -2.339927 -3.584509 4.747144 -18.240237 -7.943262 -16.268378 -0.771216 -11.945345 -0.000000 0.000001 0.000002 -2.640446 4.449053 20.018079 0.367977 -1.816111 22.906663 0.066219 -0.783321 9.662032 -0.000001 -0.000001 -0.000001 -1.172910 -0.021090 21.413900 0.819479 -2.640408 34.478986 0.272957 -1.572485 19.693787 0.000000 -0.000000 -0.000001 -0.236784 -2.596234 23.523557 1.456705 -3.384979 46.558203 0.348098 -1.768342 22.271196 0.000001 -0.000003 0.000001 -30.552461 8.334926 6.092224 59.501719 -4.057298 -0.357154 -2.107258 0.839826 -2.668652 -16.022625 -0.354378 2.400585 0.000001 0.000000 0.000000 -14.591946 -7.000286 -0.592554 25.293116 2.595568 -3.181091 -13.377886 0.343040 0.857138 -4.747257 0.000033 0.000002 0.000000 0.000000 -0.000000 
1.169725 33.999573 0.644846 1.665514 2.273372 0.747503 6.609843 0.173432 -0.673932 2.561884 -0.802064 0.887917 0.000000 0.000000 0.000000 2.621667 -0.776055 0.944272 -0.268469 1.815120 -0.237640 -3.233344 0.353598 -1.007018 0.000000 0.000000 0.000000 0.371279 -9.985388 -15.641507 0.000000 0.000000 0.000000 7.405616 -20.584761 -57.407187 0.000014 -12.913634 -0.000002 4.214053 3.996365 -10.057979 4.508193 2.883748 10.550107 6.434240 8.643681 6.022180 1.361580 -6.946002 20.738886 -0.000004 -0.000000 -0.000004 -1.948687 -3.694175 -16.699980 0.176223 1.427532 -14.074303 0.176221 1.427543 -14.074358 0.000002 0.000003 -0.000002 0.393835 4.367404 -25.050974 0.109698 1.129622 -11.093775 0.149296 1.315486 -12.949059 -0.000002 0.000001 0.000000 1.442357 6.540934 -25.786642 0.287694 1.815021 -18.012631 0.349302 1.994442 -19.865846 0.000000 -0.000001 0.000000 0.086864 5.408577 15.971906 0.000000 0.000000 0.000000 7.876289 25.924910 46.850071 0.000004 35.801133 0.000003 1.774339 0.205093 2.579188 12.069517 -1.522697 -3.323960 4.515106 -17.396381 -7.788259 -16.417196 0.094990 -11.746311 0.000001 -0.000004 -0.000002 -2.666698 4.938893 19.174984 0.339448 -1.747102 21.989246 0.054500 -0.711095 8.763532 -0.000001 -0.000000 0.000001 -1.228161 0.314524 20.541883 0.778319 -2.579493 33.574963 0.248830 -1.503431 18.795093 -0.000003 -0.000003 0.000000 -0.203312 -2.609187 22.619794 1.403828 -3.334204 45.656256 0.320899 -1.700448 21.372290 0.000001 0.000001 -0.000001 -30.389206 7.162676 8.083943 58.335867 -3.116917 -0.256652 -3.276635 1.706531 -4.575427 -14.976894 -0.092245 0.667243 0.000000 0.000000 -0.000000 -14.394726 -6.727499 -2.169972 27.296192 2.490507 -3.014390 -15.427751 0.713017 2.120136 -4.497680 0.000030 0.000001 -0.000000 -0.000000 -0.000000 
1.776808 33.822792 1.142233 1.594644 2.412558 0.826049 6.814920 0.896731 -0.675382 2.597817 0.014280 0.707129 0.000000 0.000000 0.000000 2.699920 0.030979 0.735977 -0.187441 1.661603 -0.240756 -3.336266 -1.805328 -0.614703 0.000000 0.000000 0.000000 0.351715 -10.465485 -16.222237 0.000000 0.000000 0.000000 6.640030 -18.590124 -57.376021 -0.000003 -13.844607 -0.000001 4.658385 4.339851 -9.860114 4.116218 2.524947 10.388013 6.413488 8.787842 5.843304 1.025568 -6.744685 20.418395 -0.000002 0.000000 0.000001 -1.802373 -3.432880 -16.178816 0.163233 1.374712 -13.543159 0.163234 1.374709 -13.543194 0.000003 0.000001 0.000003 0.373486 4.305312 -24.222371 0.101605 1.087511 -10.675185 0.138294 1.266662 -12.460399 0.000003 -0.000003 -0.000000 1.344708 6.398372 -24.926454 0.266545 1.748681 -17.332657 0.323666 1.922074 -19.115847 0.000001 -0.000002 -0.000000 -0.150892 6.103870 16.004776 0.000000 0.000000 0.000000 9.788278 25.097662 45.794489 0.000013 40.905122 -0.000016 3.534528 -0.117916 0.769677 11.772853 -0.652503 -3.040406 4.265558 -16.497299 -7.621272 -16.581783 1.017225 -11.531372 -0.000003 -0.000005 0.000001 -2.680255 5.463564 18.276196 0.310274 -1.673050 21.011262 0.043251 -0.633870 7.805672 -0.000001 0.000000 0.000001 -1.277218 0.674734 19.612907 0.735481 -2.513865 32.611332 0.224306 -1.429391 17.837128 -0.000000 0.000002 -0.000001 -0.169404 -2.624206 21.656185 1.348370 -3.279171 44.694804 0.293072 -1.627587 20.414090 -0.000001 0.000002 -0.000002 -29.883249 6.085068 10.165309 56.455509 -1.864825 -0.153629 -4.306632 2.652047 -6.802814 -13.504669 0.095392 -0.804496 -0.000001 -0.000001 0.000000 -14.111081 -6.439001 -3.834779 29.078048 2.859898 -2.772619 -17.352867 0.701065 3.300772 -4.267837 0.000028 0.000001 0.000000 -0.000000 -0.000000 
